<?xml version="1.0" encoding="UTF-8"?>
<!DOCTYPE svg PUBLIC "-//W3C//DTD SVG 1.1//EN" "http://www.w3.org/Graphics/SVG/1.1/DTD/svg11.dtd">
<!-- Creator: CorelDRAW 2017 -->
<svg xmlns="http://www.w3.org/2000/svg" xml:space="preserve" width="3095px" height="864px" version="1.1" style="shape-rendering:geometricPrecision; text-rendering:geometricPrecision; image-rendering:optimizeQuality; fill-rule:evenodd; clip-rule:evenodd"
viewBox="0 0 25787000 7199000"
 xmlns:xlink="http://www.w3.org/1999/xlink">
 <defs>
  <style type="text/css">
   <![CDATA[
    .fil1 {fill:#DC3438}
    .fil0 {fill:#50738F}
    .fil2 {fill:#50738F;fill-rule:nonzero}
   ]]>
  </style>
 </defs>
 <g id="Camada_x0020_1">
  <metadata id="CorelCorpID_0Corel-Layer"/>
  <g id="_878075584">
   <path class="fil0" d="M8221000 1638000l938000 2305000c0,0 60000,97000 -68000,97000 -128000,0 -225000,-1000 -225000,-1000l-319000 483000 703000 7000c0,0 176000,13000 283000,-101000 107000,-114000 124000,-205000 186000,-336000 61000,-130000 979000,-2444000 979000,-2444000l-612000 0 -612000 1588000 -638000 -1588000 -615000 -10000z"/>
   <path class="fil1" d="M720000 4032000l0 -1141000 739000 0 0 573000 969000 -573000 854000 -505000 -766000 -453000 -1057000 -625000 0 625000 -739000 0 0 -1147000 -720000 419000 0 728000 0 476000 0 482000 0 723000 720000 418000zm655000 -3627000l2646000 1528000 126000 0 0 -728000 -1037000 -603000 -1037000 -602000 -698000 405000zm2609000 2486000l-2622000 1514000 711000 413000 1037000 -602000 1037000 -602000 0 -723000 -163000 0z"/>
   <path class="fil2" d="M3966000 858000l0 -329000 -123000 0 0 -43000 295000 0 0 43000 -123000 0 0 329000 -49000 0zm222000 0l0 -372000 73000 0 88000 263000c8000,25000 14000,43000 18000,55000 4000,-13000 11000,-33000 20000,-59000l90000 -259000 66000 0 0 372000 -48000 0 0 -312000 -108000 312000 -45000 0 -107000 -317000 0 317000 -47000 0z"/>
   <path class="fil2" d="M24989000 5750000l0 -454000 -170000 0 0 -61000 408000 0 0 61000 -170000 0 0 454000 -68000 0zm307000 0l0 -515000 102000 0 122000 365000c11000,34000 19000,59000 24000,76000 6000,-19000 16000,-46000 28000,-83000l124000 -358000 91000 0 0 515000 -65000 0 0 -431000 -151000 431000 -61000 0 -149000 -438000 0 438000 -65000 0z"/>
   <path class="fil2" d="M24939000 1496000l0 -367000 131000 0c41000,0 71000,7000 92000,22000 20000,14000 30000,41000 30000,81000 0,52000 -22000,85000 -66000,98000 0,0 50000,88000 53000,94000l38000 72000 -76000 0 -66000 -119000c-7000,-12000 -17000,-27000 -24000,-34000 0,0 -20000,0 -37000,0l-13000 0 0 153000 -62000 0zm139000 -516000c92000,0 175000,37000 235000,97000 60000,60000 97000,144000 97000,235000 0,92000 -37000,175000 -97000,235000 -60000,60000 -143000,98000 -235000,98000 -92000,0 -175000,-38000 -235000,-98000 -60000,-60000 -97000,-143000 -97000,-235000 0,-91000 37000,-175000 97000,-235000 60000,-60000 143000,-97000 235000,-97000zm200000 132000c-51000,-51000 -122000,-83000 -200000,-83000 -78000,0 -149000,32000 -200000,83000 -52000,51000 -83000,122000 -83000,200000 0,79000 31000,149000 83000,201000 51000,51000 122000,82000 200000,82000 78000,0 149000,-31000 200000,-82000 51000,-52000 83000,-122000 83000,-201000 0,-78000 -32000,-149000 -83000,-200000zm-277000 172000l46000 0c31000,0 52000,-3000 63000,-9000 11000,-6000 17000,-19000 17000,-38000 0,-18000 -5000,-31000 -14000,-37000 -9000,-6000 -30000,-9000 -63000,-9000l-49000 0 0 93000z"/>
   <path class="fil0" d="M5341000 3871000l0 -2929000 1588000 13000c0,0 378000,-13000 586000,182000 208000,195000 312000,338000 299000,651000 -13000,312000 -26000,1484000 -26000,1484000 0,0 -52000,221000 -221000,378000 -169000,156000 -303000,228000 -631000,237000 -329000,10000 -1595000,-16000 -1595000,-16000zm618000 -501000l0 -1908000 827000 -13000c0,0 192000,-3000 280000,75000 88000,78000 136000,186000 133000,290000 -3000,104000 -3000,1276000 -3000,1276000 0,0 6000,130000 -108000,215000 -113000,84000 -205000,78000 -358000,81000 -153000,3000 -771000,-16000 -771000,-16000z"/>
   <path class="fil0" d="M11121000 3874000l-6000 -2226000 576000 0 -3000 124000c0,0 329000,-111000 550000,-150000 221000,-39000 482000,39000 540000,94000 59000,56000 88000,114000 134000,91000 45000,-22000 621000,-234000 885000,-185000 264000,49000 365000,140000 423000,247000 59000,108000 72000,244000 72000,420000 0,176000 -1000,1594000 -1000,1594000l-533000 -5000 -6000 -1649000c0,0 13000,-135000 -132000,-143000 -145000,-8000 -454000,33000 -519000,65000 -65000,33000 -88000,46000 -93000,129000 -5000,83000 -10000,1606000 -10000,1606000l-569000 4000 6000 -1651000c0,0 23000,-156000 -202000,-159000 -224000,-4000 -428000,65000 -468000,86000 -41000,21000 -66000,34000 -66000,116000 0,81000 -9000,1591000 -9000,1591000l-569000 1000z"/>
   <path class="fil0" d="M14919000 2327000l527000 -29000 6000 -153000c0,0 -3000,-38000 30000,-51000 32000,-13000 37000,-11000 91000,-13000 54000,-1000 636000,2000 636000,2000 0,0 36000,-5000 60000,16000 25000,21000 33000,72000 31000,144000 -1000,71000 -6000,336000 -6000,336000 0,0 -677000,-42000 -811000,-32000 -133000,10000 -393000,42000 -498000,179000 -104000,137000 -117000,270000 -110000,508000 6000,237000 -30000,407000 140000,534000 169000,126000 293000,152000 439000,146000 147000,-7000 577000,-47000 674000,-63000 98000,-16000 186000,-62000 186000,-62000l-2000 91000 560000 -3000 -26000 -1834000c0,0 3000,-182000 -172000,-300000 -176000,-117000 -261000,-114000 -446000,-114000 -186000,0 -729000,-3000 -804000,0 -75000,4000 -293000,49000 -384000,153000 -92000,105000 -121000,251000 -124000,342000 -3000,91000 3000,203000 3000,203000zm500000 715000c0,0 -7000,-58000 27000,-85000 35000,-26000 59000,-19000 118000,-19000 58000,0 644000,-3000 644000,-3000 0,0 51000,0 72000,14000 21000,15000 34000,108000 32000,207000 -1000,99000 2000,207000 -26000,230000 -27000,22000 -560000,74000 -626000,84000 -67000,10000 -199000,10000 -222000,-45000 -22000,-56000 -19000,-383000 -19000,-383000z"/>
   <path class="fil0" d="M18622000 3877000l-4000 -469000 -442000 4000c0,0 -52000,0 -78000,-26000 -26000,-27000 -46000,-131000 -43000,-349000 4000,-218000 0,-905000 0,-905000l580000 4000 -3000 -485000 -573000 -7000 0 -469000 -557000 4000 10000 2161000c0,0 -16000,202000 75000,316000 91000,114000 241000,244000 563000,244000 322000,0 472000,-5000 472000,-5000l0 -18000z"/>
   <polygon class="fil0" points="19249000,3867000 19223000,1309000 19776000,1634000 19793000,3867000 "/>
   <polygon class="fil0" points="20395000,1633000 20395000,2121000 21514000,2121000 20330000,3442000 20330000,3866000 22237000,3879000 22231000,3397000 21130000,3390000 22244000,2069000 22244000,1639000 "/>
   <path class="fil0" d="M24691000 3218000l-553000 49000 0 107000c0,0 2000,21000 -28000,46000 -29000,24000 -86000,24000 -86000,24000l-674000 -3000c0,0 -42000,-2000 -57000,-28000 -14000,-26000 -13000,-50000 -13000,-50000l2000 -417000 1400000 -5000 -2000 -885000c0,0 0,-163000 -159000,-309000 -160000,-147000 -362000,-114000 -469000,-118000 -108000,-3000 -713000,-3000 -827000,0 -114000,4000 -260000,7000 -387000,163000 -127000,156000 -131000,280000 -131000,488000 0,209000 4000,1013000 -3000,1123000 -6000,111000 23000,274000 124000,359000 101000,84000 198000,149000 514000,156000 316000,6000 736000,-4000 856000,-4000 121000,0 306000,-71000 388000,-179000 81000,-107000 104000,-192000 107000,-296000 3000,-104000 -2000,-221000 -2000,-221000zm-568000 -638000l-846000 0 -3000 -413000c0,0 0,-40000 39000,-62000 39000,-23000 88000,-23000 88000,-23000l628000 0c0,0 53000,0 75000,27000 22000,27000 21000,65000 20000,109000 -1000,45000 -1000,362000 -1000,362000z"/>
   <path class="fil2" d="M5479000 7177000l171000 0 0 -557000 128000 0c207000,0 326000,-141000 326000,-392000 0,-259000 -130000,-391000 -309000,-391000l-316000 0 0 1340000zm171000 -1168000l120000 0c103000,0 161000,77000 161000,215000 0,155000 -55000,228000 -172000,228000l-109000 0 0 -443000zm1112000 376000l-358000 0 0 -364000 376000 0 0 -184000 -545000 0 0 1340000 548000 0 21000 -180000 -400000 0 0 -431000 358000 0 0 -181000zm439000 205000c133000,0 166000,71000 166000,255000l0 47000c0,113000 1000,224000 17000,285000l166000 0c-10000,-71000 -14000,-140000 -14000,-283000l0 -53000c0,-194000 -38000,-288000 -129000,-336000 60000,-28000 145000,-113000 145000,-308000 0,-231000 -107000,-360000 -302000,-360000l-321000 0 0 1340000 169000 0 0 -587000 103000 0zm-103000 -581000l127000 0c107000,0 155000,75000 155000,196000 0,142000 -48000,215000 -171000,215000l-111000 0 0 -411000zm612000 1168000l169000 0 0 -597000 354000 0 0 -180000 -354000 0 0 -379000 377000 0 0 -184000 -546000 0 0 1340000zm1199000 -792000l-357000 0 0 -364000 375000 0 0 -184000 -545000 0 0 1340000 548000 0 21000 -180000 -399000 0 0 -431000 357000 0 0 -181000zm626000 409000c-5000,57000 -20000,229000 -146000,229000 -142000,0 -165000,-253000 -165000,-516000 0,-290000 30000,-512000 171000,-512000 132000,0 137000,180000 138000,225000l171000 0c-3000,-98000 -24000,-403000 -307000,-403000 -252000,0 -350000,267000 -350000,686000 0,346000 31000,696000 338000,696000 291000,0 316000,-334000 321000,-405000l-171000 0zm470000 383000l170000 0 0 -1156000 239000 0 0 -184000 -648000 0 0 184000 239000 0 0 1156000zm520000 -1340000l0 1340000 170000 0 0 -1340000 -170000 0zm526000 1340000l0 -435000c0,-241000 0,-446000 -8000,-612000l2000 0c13000,59000 55000,195000 317000,1047000l190000 0 0 -1340000 -154000 0 0 419000c0,219000 1000,417000 9000,585000l-1000 0c-13000,-63000 -57000,-200000 -311000,-1004000l-198000 0 0 1340000 154000 0zm1330000 -747000l-332000 0 0 180000 163000 0 0 71000c0,225000 -32000,342000 -153000,342000 -135000,0 -169000,-190000 -169000,-510000 0,-306000 42000,-518000 179000,-518000 130000,0 140000,152000 143000,204000l169000 0c-3000,-79000 -19000,-382000 -307000,-382000 -233000,0 -361000,218000 -361000,696000 0,419000 76000,686000 309000,686000 106000,0 204000,-11000 282000,-136000 74000,-120000 75000,-341000 77000,-459000l0 -174000zm912000 379000l65000 368000 179000 0 -263000 -1340000 -221000 0 -259000 1340000 171000 0 63000 -368000 265000 0zm-234000 -181000c46000,-261000 85000,-475000 98000,-597000l4000 0c17000,120000 53000,316000 101000,597000l-203000 0zm644000 549000l170000 0 0 -1156000 239000 0 0 -184000 -648000 0 0 184000 239000 0 0 1156000zm520000 0l171000 0 0 -617000 297000 0 0 617000 171000 0 0 -1340000 -171000 0 0 544000 -297000 0 0 -544000 -171000 0 0 1340000zm839000 0l534000 0 18000 -178000 -382000 0 0 -1162000 -170000 0 0 1340000zm1180000 -792000l-358000 0 0 -364000 376000 0 0 -184000 -545000 0 0 1340000 548000 0 21000 -180000 -400000 0 0 -431000 358000 0 0 -181000zm349000 792000l171000 0 0 -1156000 239000 0 0 -184000 -649000 0 0 184000 239000 0 0 1156000zm520000 -1340000l0 1340000 171000 0 0 -1340000 -171000 0zm821000 957000c-5000,57000 -19000,229000 -146000,229000 -141000,0 -164000,-253000 -164000,-516000 0,-290000 29000,-512000 170000,-512000 132000,0 137000,180000 139000,225000l170000 0c-3000,-98000 -24000,-403000 -307000,-403000 -252000,0 -349000,267000 -349000,686000 0,346000 30000,696000 338000,696000 291000,0 315000,-334000 320000,-405000l-171000 0zm789000 383000l0 -435000c0,-241000 0,-446000 -8000,-612000l1000 0c13000,59000 56000,195000 317000,1047000l190000 0 0 -1340000 -154000 0 0 419000c0,219000 2000,417000 10000,585000l-2000 0c-13000,-63000 -57000,-200000 -310000,-1004000l-199000 0 0 1340000 155000 0zm691000 -1340000l0 935000c0,251000 76000,427000 325000,427000 253000,0 330000,-188000 330000,-429000l0 -933000 -173000 0 0 929000c0,144000 -27000,257000 -154000,257000 -130000,0 -158000,-134000 -158000,-257000l0 -929000 -170000 0zm998000 1340000l170000 0 0 -1156000 239000 0 0 -184000 -648000 0 0 184000 239000 0 0 1156000zm791000 -587000c133000,0 166000,71000 166000,255000l0 47000c0,113000 2000,224000 18000,285000l166000 0c-10000,-71000 -15000,-140000 -15000,-283000l0 -53000c0,-194000 -37000,-288000 -128000,-336000 60000,-28000 144000,-113000 144000,-308000 0,-231000 -107000,-360000 -302000,-360000l-320000 0 0 1340000 169000 0 0 -587000 102000 0zm-102000 -581000l127000 0c107000,0 154000,75000 154000,196000 0,142000 -47000,215000 -171000,215000l-110000 0 0 -411000zm611000 -172000l0 1340000 171000 0 0 -1340000 -171000 0zm515000 1340000l171000 0 0 -1156000 239000 0 0 -184000 -649000 0 0 184000 239000 0 0 1156000zm520000 -1340000l0 1340000 171000 0 0 -1340000 -171000 0zm683000 -20000c-223000,0 -349000,204000 -349000,678000 0,484000 109000,704000 341000,704000 249000,0 351000,-223000 351000,-702000 0,-462000 -107000,-680000 -343000,-680000zm-3000 178000c125000,0 170000,160000 170000,500000 0,348000 -42000,528000 -170000,528000 -124000,0 -171000,-190000 -171000,-530000 0,-322000 47000,-498000 171000,-498000zm661000 1182000l0 -435000c0,-241000 0,-446000 -8000,-612000l2000 0c13000,59000 55000,195000 317000,1047000l190000 0 0 -1340000 -154000 0 0 419000c0,219000 1000,417000 9000,585000l-1000 0c-13000,-63000 -57000,-200000 -311000,-1004000l-198000 0 0 1340000 154000 0z"/>
  </g>
 </g>
</svg>
